<?xml version="1.0" encoding="UTF-8"?>
<svg id="Livello_1" xmlns="http://www.w3.org/2000/svg" version="1.1" viewBox="0 0 795.57 86.81">
  <!-- Generator: Adobe Illustrator 29.8.2, SVG Export Plug-In . SVG Version: 2.1.1 Build 3)  -->
  <defs>
    <style>
      .st0 {
        stroke-width: 0px;
      }

      .st0, .st1, .st2 {
        fill: #fff;
      }

      .st0, .st2 {
        stroke: #fff;
        stroke-miterlimit: 10;
      }

      .st2 {
        stroke-width: .01px;
      }
    </style>
  </defs>
  <g>
    <path id="E1-MJMATHI-48" class="st2" d="M-769.06-344.12c-.69,0-1.06-.04-1.1-.12-.02-.04-.03-.12-.03-.25,0-.49.11-.83.34-1.01.04-.02.21-.03.52-.03.84.04,2.23.06,4.17.06h1.93c.59,0,1.05-.01,1.38-.03s.53-.02.61,0c.33,0,.49.1.49.31,0,.04-.02.18-.06.43-.1.35-.2.55-.31.61h-.43c-.08,0-.17.01-.28.03s-.19.02-.28,0c-.8.02-1.31.05-1.53.09s-.41.15-.55.34c-.06.08-.39,1.34-.98,3.77-.14.53-.3,1.12-.46,1.78s-.29,1.13-.37,1.44l-.12.46s1.48.06,4.44.06h4.44l.03-.09c0-.06.32-1.32.95-3.77.57-2.35.86-3.6.86-3.77s-.58-.27-1.75-.31c-.47,0-.78-.02-.92-.06s-.21-.13-.21-.28c0-.04.02-.16.06-.37.08-.35.14-.54.18-.58s.2-.07.49-.09c.1,0,.53.01,1.29.03s1.72.03,2.88.03c1.27,0,2.24-.01,2.91-.03s1.04-.03,1.1-.03c.35,0,.52.1.52.31,0,.55-.12.9-.37,1.04h-.43c-.08,0-.17.01-.28.03s-.19.02-.28,0c-.8.02-1.31.05-1.53.09s-.41.15-.55.34c-.06.1-.8,2.99-2.21,8.67-1.41,5.68-2.12,8.56-2.14,8.64,0,.14.04.21.12.21.16.06.71.11,1.65.15h.95c.12.16.18.26.18.28s-.03.2-.09.55c-.08.27-.18.46-.31.58h-.46c-.76-.04-2.12-.06-4.1-.06h-3.34c-.35,0-.56.01-.64.03-.35,0-.52-.09-.52-.28,0-.1.03-.25.09-.43.1-.39.2-.6.31-.64.08-.02.23-.03.46-.03h.18c.55,0,1.16-.03,1.84-.09.12-.02.2-.03.25-.03s.1-.05.18-.15.14-.19.18-.28c.04-.08.1-.27.18-.55s.15-.57.21-.86.17-.72.34-1.32c.14-.57.26-1.03.34-1.38.67-2.7,1.01-4.05,1.01-4.07s-1.48-.03-4.44-.03h-4.44l-1.01,4.13c-.69,2.74-1.04,4.16-1.04,4.26,0,.14.08.23.25.28.16.04.67.07,1.53.09h.95c.12.16.18.26.18.28s-.03.2-.09.55c-.08.27-.18.46-.31.58h-.46c-.76-.04-2.12-.06-4.1-.06h-3.34c-.35,0-.56.01-.64.03-.35,0-.52-.09-.52-.28,0-.04.03-.18.09-.43.1-.39.2-.6.31-.64.08-.02.23-.03.46-.03h.18c.55,0,1.16-.03,1.84-.09.29-.06.48-.18.58-.37.06-.08.8-2.92,2.21-8.51,1.41-5.59,2.11-8.55,2.11-8.85,0-.14-.58-.23-1.75-.28Z"/>
    <path id="E1-MJMAIN-3D" class="st2" d="M-738.61-335.23c0-.27.14-.47.43-.61h19.51c.31.16.46.37.46.61,0,.22-.14.42-.43.58l-9.74.03h-9.74c-.33-.1-.49-.31-.49-.61ZM-738.61-329.29c0-.31.16-.51.49-.61h19.48c.29.2.43.41.43.61,0,.27-.15.47-.46.61h-19.51c-.29-.14-.43-.35-.43-.61Z"/>
    <path id="E1-MJMAIN-2212" class="st2" d="M-705.41-331.86v-.4c0-.27.14-.47.43-.61h17.8c.31.16.46.37.46.61s-.15.45-.46.61h-17.8c-.29-.14-.43-.35-.43-.61v.4Z"/>
    <path id="E1-MJMATHI-4B" class="st2" d="M-675.4-343.84c0-.14-.58-.23-1.75-.28-.47,0-.78-.01-.92-.03s-.21-.11-.21-.28c0-.04.02-.18.06-.43.12-.41.22-.62.31-.64.04-.02.15-.03.34-.03h.15c.84.04,2.23.06,4.17.06h1.93c.59,0,1.05-.01,1.38-.03s.53-.02.61,0c.35,0,.52.08.52.25,0,.1-.03.25-.09.43-.02.04-.03.1-.03.18s-.01.14-.03.18l-.06.12s-.05.07-.09.09-.08.04-.12.06-.11.03-.21.03-.19.01-.28.03-.22.02-.43,0c-.82.02-1.34.05-1.56.09s-.41.15-.55.34l-2.48,9.74s1.9-1.47,5.64-4.41c3.74-2.94,5.66-4.45,5.76-4.53.29-.29.43-.52.43-.7,0-.31-.26-.48-.77-.52-.33,0-.49-.11-.49-.34,0-.04.03-.18.09-.43s.11-.4.15-.46c.06-.1.23-.15.52-.15.08,0,.44.01,1.07.03s1.45.03,2.45.03c.47,0,.96-.01,1.47-.03s.82-.03.92-.03c.41,0,.61.1.61.31,0,.45-.08.76-.25.92-.06.1-.26.15-.58.15-1.53.1-2.92.62-4.17,1.56-.33.2-1.04.74-2.14,1.59s-2.12,1.66-3.06,2.42l-1.44,1.13.28.67c.18.45.47,1.13.86,2.05s.75,1.79,1.07,2.6c1.53,3.61,2.35,5.48,2.45,5.6.04.04.09.08.15.12.29.2.81.32,1.56.34h.64c.12.16.18.26.18.28s-.03.2-.09.55c-.08.27-.18.46-.31.58h-.34c-.82-.06-1.79-.09-2.91-.09-2.49,0-3.89.03-4.2.09h-.31c-.12-.12-.18-.21-.18-.28s.02-.25.06-.55c.08-.27.14-.43.18-.49s.15-.09.34-.09h.09c1.02,0,1.53-.26,1.53-.77,0-.08-.28-.8-.83-2.14s-.88-2.11-.98-2.3l-1.78-4.23-2.08,1.62-2.08,1.62-.7,2.85c-.47,1.88-.7,2.87-.7,2.97,0,.14.08.23.25.28.16.04.67.07,1.53.09h.95c.12.18.18.3.18.34,0,.33-.07.63-.21.92-.1.1-.27.15-.49.15-.06,0-.44-.01-1.13-.03-.69-.02-1.72-.03-3.06-.03h-2.91c-.67,0-1.04.01-1.1.03-.37,0-.55-.1-.55-.31,0-.04.03-.18.09-.43.08-.33.16-.51.25-.55s.32-.07.7-.09c.55,0,1.16-.03,1.84-.09.29-.06.48-.18.58-.37.06-.08.8-2.92,2.21-8.51,1.41-5.59,2.11-8.55,2.11-8.85Z"/>
    <g>
      <path id="E1-MJSZ2-2211" class="st2" d="M-649.95-353.64c.06-.04,6.24-.06,18.53-.06h18.44l1.78,4.13c1.2,2.82,1.85,4.31,1.93,4.47h-1.23l-.21-.43c-.43-.84-1-1.63-1.72-2.39-1.02-.98-2.15-1.77-3.4-2.36s-2.69-1.03-4.32-1.32c-1.63-.29-3.18-.46-4.62-.52s-3.32-.1-5.6-.12h-13.72l.25.34c9.45,12.93,14.2,19.45,14.24,19.57.02.04.02.1,0,.18-.06.06-2.76,3.14-8.09,9.25l-8.09,9.19s2.15.03,6.46.03h4.32c1.82,0,3.12.01,3.92.03,2.78,0,5.02-.05,6.74-.15s3.42-.32,5.11-.64c1.69-.33,3.13-.83,4.32-1.5s2.24-1.56,3.15-2.66c.43-.53.85-1.27,1.26-2.21h1.23s-.07.23-.21.64-.4,1.07-.77,1.99-.68,1.78-.95,2.57l-1.78,4.75-18.41.03c-12.29,0-18.47-.02-18.53-.06-.12-.04-.18-.13-.18-.28,0-.04.02-.1.06-.18l16.32-18.68s-.34-.48-1.01-1.38-1.75-2.37-3.22-4.41-2.8-3.86-3.98-5.45l-8.15-11.18-.03-.46c0-.43.05-.67.15-.74Z"/>
      <path id="E1-MJMATHI-69" class="st0" d="M-629.44-304.34c0-.35.14-.65.41-.91s.59-.4.95-.41c.26,0,.48.09.65.26s.27.39.28.65c0,.33-.14.64-.43.91s-.61.42-.95.43c-.22,0-.42-.07-.61-.22s-.29-.38-.3-.71ZM-632.97-297.56c0-.12.06-.34.19-.67s.3-.7.52-1.1.53-.77.95-1.1.85-.49,1.3-.48c.56,0,1.03.17,1.41.5s.57.78.58,1.34c0,.25-.1.65-.3,1.21s-.49,1.32-.87,2.27-.68,1.77-.91,2.45c-.07.32-.11.55-.11.69,0,.36.12.54.37.54.13,0,.27-.02.41-.06s.31-.14.5-.3.38-.41.58-.76.38-.77.54-1.28c.04-.17.08-.27.11-.3s.15-.04.37-.04c.29,0,.43.07.43.22,0,.12-.06.34-.19.67s-.31.7-.54,1.1c-.23.4-.56.77-.97,1.08-.42.32-.87.48-1.34.48s-.89-.15-1.28-.45-.59-.77-.61-1.39c0-.25.04-.48.11-.69s.38-1.04.93-2.47c.55-1.46.87-2.33.95-2.62s.14-.57.15-.84c0-.35-.12-.52-.37-.52h-.04c-.43,0-.83.24-1.19.71s-.64,1.08-.82,1.82c-.01.01-.03.04-.04.06s-.02.05-.02.06-.01.03-.04.04-.05.02-.06.02h-.56c-.09-.09-.13-.15-.13-.19Z"/>
    </g>
    <g>
      <path id="E1-MJMATHI-70" class="st2" d="M-601.74-333.4c.02-.06.04-.14.06-.25s.07-.33.15-.67c.08-.35.18-.66.31-.95s.28-.62.46-1.01.39-.69.61-.92.49-.45.8-.67.64-.32,1.01-.28c1.53,0,2.51.65,2.94,1.96l.31-.28c1.27-1.12,2.47-1.68,3.61-1.68,1.33,0,2.37.48,3.12,1.44s1.13,2.12,1.13,3.49c0,2.21-.78,4.24-2.33,6.1-1.55,1.86-3.31,2.8-5.27,2.82-.45,0-.85-.06-1.19-.18-.22-.1-.46-.26-.7-.46-.25-.2-.44-.38-.58-.52l-.21-.25s-.25.91-.67,2.66c-.43,1.76-.64,2.64-.64,2.66,0,.12.08.19.25.21.16.02.54.05,1.13.09h.77c.12.14.18.23.18.28s-.03.22-.09.55c-.06.25-.12.4-.18.46s-.19.1-.4.12h-.34c-.18,0-.53-.01-1.04-.03-.51-.02-1.14-.03-1.9-.03-1.43,0-2.34.02-2.73.06h-.25c-.14-.14-.21-.26-.21-.34.04-.55.17-.91.4-1.07h.61c.69-.02,1.09-.14,1.19-.37.06-.12.68-2.56,1.87-7.32,1.18-4.76,1.81-7.28,1.87-7.57.02-.1.03-.25.03-.43,0-.84-.26-1.26-.77-1.26-.45,0-.83.29-1.13.86s-.54,1.19-.7,1.87-.29,1.04-.37,1.1c-.04.04-.2.06-.49.06h-.43c-.12-.12-.18-.21-.18-.28ZM-596.99-327.73c.45,1.55,1.2,2.33,2.27,2.33.61,0,1.2-.23,1.78-.7.57-.47,1.04-1.06,1.41-1.78.37-.69.74-1.8,1.1-3.31.37-1.51.56-2.63.58-3.37v-.18c0-1.51-.62-2.27-1.87-2.27-.22,0-.45.03-.67.09s-.45.15-.67.28-.43.26-.61.4-.36.3-.52.46l-.46.46c-.14.14-.26.29-.34.43s-.16.25-.25.31l-.09.12s-.03.16-.09.43-.17.71-.34,1.35c-.16.63-.31,1.16-.43,1.59-.53,2.16-.8,3.29-.8,3.37Z"/>
      <path id="E1-MJMAIN-28" class="st2" d="M-584.16-332.26c0-1.41.1-2.75.31-4.01s.44-2.36.7-3.28c.27-.92.64-1.82,1.13-2.7s.88-1.56,1.16-2.05.71-1.02,1.29-1.59c.57-.57.91-.92,1.01-1.04s.36-.34.77-.64h.52c.29,0,.43.09.43.28,0,.06-.17.28-.52.64s-.77.91-1.26,1.62-.99,1.59-1.5,2.63-.94,2.45-1.29,4.23-.52,3.75-.52,5.91.17,4.12.52,5.88c.35,1.76.77,3.18,1.26,4.26.49,1.08.99,1.96,1.5,2.63s.94,1.21,1.29,1.62.52.62.52.64c0,.18-.15.28-.46.28h-.49l-.86-.74c-1.92-1.74-3.32-3.9-4.2-6.49-.88-2.59-1.32-5.29-1.32-8.09Z"/>
      <g>
        <path id="E1-MJMATHI-78" class="st2" d="M-573.5-333.46c.14-.86.69-1.85,1.65-2.97.96-1.12,2.14-1.69,3.55-1.72.71,0,1.37.18,1.96.55s1.03.83,1.32,1.38c.86-1.29,1.89-1.93,3.09-1.93.76,0,1.41.22,1.96.67s.84,1.05.86,1.81c0,.59-.14,1.07-.43,1.44-.29.37-.56.59-.83.67s-.5.12-.7.12c-.39,0-.7-.11-.95-.34s-.37-.52-.37-.89c0-.94.51-1.58,1.53-1.93-.22-.27-.63-.4-1.23-.4-.27,0-.46.02-.58.06-.78.33-1.35,1-1.72,2.02-1.23,4.51-1.84,7.15-1.84,7.9,0,.57.16.98.49,1.23s.68.37,1.07.37c.76,0,1.5-.34,2.24-1.01s1.24-1.5,1.5-2.48c.06-.2.12-.32.18-.34s.22-.04.49-.06h.12c.31,0,.46.08.46.25,0,.02-.02.13-.06.34-.33,1.16-.96,2.2-1.9,3.09-.94.9-2.03,1.35-3.28,1.35-1.43,0-2.51-.64-3.25-1.93-.84,1.27-1.8,1.9-2.88,1.9h-.18c-1,0-1.72-.27-2.14-.8-.43-.53-.65-1.09-.67-1.68,0-.65.19-1.18.58-1.59.39-.41.85-.61,1.38-.61.88,0,1.32.43,1.32,1.29,0,.41-.12.77-.37,1.07s-.48.51-.7.61-.36.15-.4.15l-.09.03s.06.06.18.12.29.13.49.21.4.11.58.09c.74,0,1.37-.46,1.9-1.38.18-.33.42-1.02.7-2.08.29-1.06.57-2.16.86-3.31.29-1.14.45-1.82.49-2.02.1-.55.15-.95.15-1.19,0-.57-.15-.98-.46-1.23s-.65-.37-1.04-.37c-.82,0-1.58.33-2.3.98-.71.65-1.21,1.49-1.5,2.51-.04.18-.09.29-.15.31s-.22.04-.49.06h-.43c-.12-.12-.18-.23-.18-.34Z"/>
        <path id="E1-MJMATHI-691" data-name="E1-MJMATHI-69" class="st0" d="M-553.59-332.98c0-.35.14-.65.41-.91s.59-.4.95-.41c.26,0,.48.09.65.26s.27.39.28.65c0,.33-.14.64-.43.91s-.61.42-.95.43c-.22,0-.42-.07-.61-.22s-.29-.38-.3-.71ZM-557.12-326.21c0-.12.06-.34.19-.67s.3-.7.52-1.1.53-.77.95-1.1.85-.49,1.3-.48c.56,0,1.03.17,1.41.5s.57.78.58,1.34c0,.25-.1.65-.3,1.21s-.49,1.32-.87,2.27-.68,1.77-.91,2.45c-.07.32-.11.55-.11.69,0,.36.12.54.37.54.13,0,.27-.02.41-.06s.31-.14.5-.3.38-.41.58-.76.38-.77.54-1.28c.04-.17.08-.27.11-.3s.15-.04.37-.04c.29,0,.43.07.43.22,0,.12-.06.34-.19.67s-.31.7-.54,1.1c-.23.4-.56.77-.97,1.08-.42.32-.87.48-1.34.48s-.89-.15-1.28-.45-.59-.77-.61-1.39c0-.25.04-.48.11-.69s.38-1.04.93-2.47c.55-1.46.87-2.33.95-2.62s.14-.57.15-.84c0-.35-.12-.52-.37-.52h-.04c-.43,0-.83.24-1.19.71s-.64,1.08-.82,1.82c-.01.01-.03.04-.04.06s-.02.05-.02.06-.01.03-.04.04-.05.02-.06.02h-.56c-.09-.09-.13-.15-.13-.19Z"/>
      </g>
      <path id="E1-MJMAIN-29" class="st2" d="M-545.2-347.55l.12-.03h.67l.86.74c1.92,1.74,3.32,3.9,4.2,6.49.88,2.59,1.32,5.29,1.32,8.09,0,1.39-.1,2.73-.31,4.01s-.44,2.38-.7,3.28c-.27.9-.64,1.8-1.13,2.7-.49.9-.88,1.58-1.16,2.05-.29.47-.7.99-1.26,1.56s-.88.91-.98,1.01-.34.3-.7.58c-.06.06-.1.1-.12.12h-.7c-.06,0-.11-.03-.15-.09s-.07-.15-.09-.28c.02-.02.13-.15.34-.4,3.16-3.29,4.75-8.14,4.75-14.55s-1.58-11.26-4.75-14.55c-.2-.25-.32-.38-.34-.4,0-.16.05-.28.15-.34Z"/>
      <g>
        <path id="E1-MJMAIN-6C" class="st2" d="M-528.72-326.01h.43c.8,0,1.28-.14,1.44-.43v-1.96c0-.39.01-.83.03-1.32s.02-1,0-1.53-.02-1.09,0-1.68c.02-.59.02-1.17,0-1.75v-6.52c0-.53-.01-.98-.03-1.35s-.02-.54,0-.52c-.06-.39-.2-.64-.43-.77s-.68-.21-1.38-.28h-.55v-.7c0-.47.02-.7.06-.7l.31-.03c.2-.02.5-.04.89-.06.39-.02.77-.04,1.13-.06.35-.02.72-.04,1.13-.06.41-.02.71-.05.92-.09s.32-.05.34-.03h.09v9.65c0,6.47.01,9.73.03,9.77.08.16.2.28.37.34.43.06.93.09,1.5.09h.49v1.41h-.25l-.7-.03c-.47-.02-.97-.03-1.5-.03s-.92-.01-1.16-.03-.63-.02-1.16,0-1.04.04-1.53.06l-.7.03h-.25v-1.41h.49Z"/>
        <path id="E1-MJMAIN-6F" class="st2" d="M-520.63-331.16c0-1.94.66-3.61,1.99-5.02,1.33-1.41,2.93-2.12,4.81-2.14,1.84,0,3.42.69,4.75,2.08s2,3.07,2.02,5.05c0,1.94-.65,3.57-1.96,4.9-1.31,1.33-2.91,1.99-4.81,1.99s-3.6-.68-4.87-2.05c-1.27-1.37-1.91-2.97-1.93-4.81ZM-513.83-325.52c2.49,0,3.74-1.66,3.74-4.99v-1.75c0-.45-.01-.84-.03-1.16s-.09-.71-.21-1.16-.29-.82-.49-1.1-.52-.57-.95-.86-.93-.49-1.5-.61c-.1-.02-.27-.03-.49-.03-.61,0-1.19.12-1.75.37-.88.45-1.45,1.07-1.72,1.87s-.4,1.74-.4,2.82v.61c0,1.96.19,3.34.58,4.13.65,1.25,1.73,1.87,3.22,1.87Z"/>
        <path id="E1-MJMAIN-67" class="st2" d="M-496.07-337.13c.9-.9,1.92-1.35,3.06-1.35.61,0,1.05.19,1.32.58s.4.78.4,1.16c0,.29-.09.54-.28.77s-.46.34-.83.34c-.67,0-1.05-.31-1.13-.92-.04-.29-.01-.5.09-.64,0-.02.01-.05.03-.09v-.03c-.57.06-1.11.29-1.62.67-.16.1-.25.17-.25.21,0,.02.04.07.12.15s.17.2.28.37.21.35.34.55.21.47.28.8.1.66.12,1.01c0,1.27-.5,2.34-1.5,3.22s-2.24,1.33-3.71,1.35c-1.02,0-2.03-.29-3.03-.86-.22.37-.34.76-.34,1.16,0,.71.27,1.25.8,1.59.18.12.36.18.52.18s.9.02,2.21.06c1.72.02,2.82.08,3.31.18,1.25.18,2.23.6,2.94,1.26.8.8,1.19,1.8,1.19,3,0,1.37-.8,2.42-2.39,3.15-1.23.63-2.67.95-4.35.95s-3.15-.32-4.38-.95c-1.59-.71-2.39-1.74-2.39-3.06,0-.74.21-1.35.64-1.84s.86-.83,1.29-1.01l.34-.18c-.74-.63-1.1-1.49-1.1-2.57,0-.96.3-1.83.89-2.6-.9-.9-1.35-1.91-1.35-3.03,0-1.29.51-2.37,1.53-3.25,1.02-.88,2.26-1.33,3.71-1.35,1.04,0,2.01.27,2.91.8l.34.21ZM-496.99-335.11c-.1-.57-.37-1.02-.8-1.35s-.96-.5-1.59-.52c-.59,0-1.1.16-1.53.49s-.69.79-.8,1.38c-.06.35-.09.87-.09,1.56,0,.9.07,1.56.21,1.99s.45.79.92,1.07c.35.2.79.31,1.32.31.45,0,.84-.07,1.16-.21.33-.14.56-.33.7-.55s.26-.43.34-.61.13-.34.15-.46c.06-.33.09-.84.09-1.53s-.03-1.21-.09-1.56ZM-493.8-322.31c0-.51-.14-.93-.43-1.26-.29-.33-.7-.56-1.26-.7-.55-.14-1.05-.23-1.5-.28-.45-.04-1-.06-1.65-.06h-.83c-1.37,0-2.18.06-2.45.18-.41.18-.72.47-.95.86-.22.39-.35.8-.37,1.23,0,.2.06.44.18.7s.34.57.64.92c.31.35.8.63,1.47.86s1.49.35,2.45.37c1.41,0,2.54-.29,3.4-.86.86-.57,1.29-1.23,1.29-1.96Z"/>
      </g>
      <g>
        <path id="E1-MJMATHI-701" data-name="E1-MJMATHI-70" class="st2" d="M-484.98-333.4c.02-.06.04-.14.06-.25s.07-.33.15-.67c.08-.35.18-.66.31-.95s.28-.62.46-1.01.39-.69.61-.92.49-.45.8-.67.64-.32,1.01-.28c1.53,0,2.51.65,2.94,1.96l.31-.28c1.27-1.12,2.47-1.68,3.61-1.68,1.33,0,2.37.48,3.12,1.44s1.13,2.12,1.13,3.49c0,2.21-.78,4.24-2.33,6.1-1.55,1.86-3.31,2.8-5.27,2.82-.45,0-.85-.06-1.19-.18-.22-.1-.46-.26-.7-.46-.25-.2-.44-.38-.58-.52l-.21-.25s-.25.91-.67,2.66c-.43,1.76-.64,2.64-.64,2.66,0,.12.08.19.25.21.16.02.54.05,1.13.09h.77c.12.14.18.23.18.28s-.03.22-.09.55c-.06.25-.12.4-.18.46s-.19.1-.4.12h-.34c-.18,0-.53-.01-1.04-.03-.51-.02-1.14-.03-1.9-.03-1.43,0-2.34.02-2.73.06h-.25c-.14-.14-.21-.26-.21-.34.04-.55.17-.91.4-1.07h.61c.69-.02,1.09-.14,1.19-.37.06-.12.68-2.56,1.87-7.32,1.18-4.76,1.81-7.28,1.87-7.57.02-.1.03-.25.03-.43,0-.84-.26-1.26-.77-1.26-.45,0-.83.29-1.13.86s-.54,1.19-.7,1.87-.29,1.04-.37,1.1c-.04.04-.2.06-.49.06h-.43c-.12-.12-.18-.21-.18-.28ZM-480.23-327.73c.45,1.55,1.2,2.33,2.27,2.33.61,0,1.2-.23,1.78-.7.57-.47,1.04-1.06,1.41-1.78.37-.69.74-1.8,1.1-3.31.37-1.51.56-2.63.58-3.37v-.18c0-1.51-.62-2.27-1.87-2.27-.22,0-.45.03-.67.09s-.45.15-.67.28-.43.26-.61.4-.36.3-.52.46l-.46.46c-.14.14-.26.29-.34.43s-.16.25-.25.31l-.09.12s-.03.16-.09.43-.17.71-.34,1.35c-.16.63-.31,1.16-.43,1.59-.53,2.16-.8,3.29-.8,3.37Z"/>
        <path id="E1-MJMAIN-281" data-name="E1-MJMAIN-28" class="st2" d="M-467.4-332.26c0-1.41.1-2.75.31-4.01s.44-2.36.7-3.28c.27-.92.64-1.82,1.13-2.7s.88-1.56,1.16-2.05.71-1.02,1.29-1.59c.57-.57.91-.92,1.01-1.04s.36-.34.77-.64h.52c.29,0,.43.09.43.28,0,.06-.17.28-.52.64s-.77.91-1.26,1.62-.99,1.59-1.5,2.63-.94,2.45-1.29,4.23-.52,3.75-.52,5.91.17,4.12.52,5.88c.35,1.76.77,3.18,1.26,4.26.49,1.08.99,1.96,1.5,2.63s.94,1.21,1.29,1.62.52.62.52.64c0,.18-.15.28-.46.28h-.49l-.86-.74c-1.92-1.74-3.32-3.9-4.2-6.49-.88-2.59-1.32-5.29-1.32-8.09Z"/>
        <g>
          <path id="E1-MJMATHI-781" data-name="E1-MJMATHI-78" class="st2" d="M-456.74-333.46c.14-.86.69-1.85,1.65-2.97.96-1.12,2.14-1.69,3.55-1.72.71,0,1.37.18,1.96.55s1.03.83,1.32,1.38c.86-1.29,1.89-1.93,3.09-1.93.76,0,1.41.22,1.96.67s.84,1.05.86,1.81c0,.59-.14,1.07-.43,1.44-.29.37-.56.59-.83.67s-.5.12-.7.12c-.39,0-.7-.11-.95-.34s-.37-.52-.37-.89c0-.94.51-1.58,1.53-1.93-.22-.27-.63-.4-1.23-.4-.27,0-.46.02-.58.06-.78.33-1.35,1-1.72,2.02-1.23,4.51-1.84,7.15-1.84,7.9,0,.57.16.98.49,1.23s.68.37,1.07.37c.76,0,1.5-.34,2.24-1.01s1.24-1.5,1.5-2.48c.06-.2.12-.32.18-.34s.22-.04.49-.06h.12c.31,0,.46.08.46.25,0,.02-.02.13-.06.34-.33,1.16-.96,2.2-1.9,3.09-.94.9-2.03,1.35-3.28,1.35-1.43,0-2.51-.64-3.25-1.93-.84,1.27-1.8,1.9-2.88,1.9h-.18c-1,0-1.72-.27-2.14-.8-.43-.53-.65-1.09-.67-1.68,0-.65.19-1.18.58-1.59.39-.41.85-.61,1.38-.61.88,0,1.32.43,1.32,1.29,0,.41-.12.77-.37,1.07s-.48.51-.7.61-.36.15-.4.15l-.09.03s.06.06.18.12.29.13.49.21.4.11.58.09c.74,0,1.37-.46,1.9-1.38.18-.33.42-1.02.7-2.08.29-1.06.57-2.16.86-3.31.29-1.14.45-1.82.49-2.02.1-.55.15-.95.15-1.19,0-.57-.15-.98-.46-1.23s-.65-.37-1.04-.37c-.82,0-1.58.33-2.3.98-.71.65-1.21,1.49-1.5,2.51-.04.18-.09.29-.15.31s-.22.04-.49.06h-.43c-.12-.12-.18-.23-.18-.34Z"/>
          <path id="E1-MJMATHI-692" data-name="E1-MJMATHI-69" class="st0" d="M-436.83-332.98c0-.35.14-.65.41-.91s.59-.4.95-.41c.26,0,.48.09.65.26s.27.39.28.65c0,.33-.14.64-.43.91s-.61.42-.95.43c-.22,0-.42-.07-.61-.22s-.29-.38-.3-.71ZM-440.36-326.21c0-.12.06-.34.19-.67s.3-.7.52-1.1.53-.77.95-1.1.85-.49,1.3-.48c.56,0,1.03.17,1.41.5s.57.78.58,1.34c0,.25-.1.65-.3,1.21s-.49,1.32-.87,2.27-.68,1.77-.91,2.45c-.07.32-.11.55-.11.69,0,.36.12.54.37.54.13,0,.27-.02.41-.06s.31-.14.5-.3.38-.41.58-.76.38-.77.54-1.28c.04-.17.08-.27.11-.3s.15-.04.37-.04c.29,0,.43.07.43.22,0,.12-.06.34-.19.67s-.31.7-.54,1.1c-.23.4-.56.77-.97,1.08-.42.32-.87.48-1.34.48s-.89-.15-1.28-.45-.59-.77-.61-1.39c0-.25.04-.48.11-.69s.38-1.04.93-2.47c.55-1.46.87-2.33.95-2.62s.14-.57.15-.84c0-.35-.12-.52-.37-.52h-.04c-.43,0-.83.24-1.19.71s-.64,1.08-.82,1.82c-.01.01-.03.04-.04.06s-.02.05-.02.06-.01.03-.04.04-.05.02-.06.02h-.56c-.09-.09-.13-.15-.13-.19Z"/>
        </g>
        <path id="E1-MJMAIN-291" data-name="E1-MJMAIN-29" class="st2" d="M-428.44-347.55l.12-.03h.67l.86.74c1.92,1.74,3.32,3.9,4.2,6.49.88,2.59,1.32,5.29,1.32,8.09,0,1.39-.1,2.73-.31,4.01s-.44,2.38-.7,3.28c-.27.9-.64,1.8-1.13,2.7-.49.9-.88,1.58-1.16,2.05-.29.47-.7.99-1.26,1.56s-.88.91-.98,1.01-.34.3-.7.58c-.06.06-.1.1-.12.12h-.7c-.06,0-.11-.03-.15-.09s-.07-.15-.09-.28c.02-.02.13-.15.34-.4,3.16-3.29,4.75-8.14,4.75-14.55s-1.58-11.26-4.75-14.55c-.2-.25-.32-.38-.34-.4,0-.16.05-.28.15-.34Z"/>
      </g>
    </g>
    <path id="E1-MJMAIN-2E" class="st2" d="M-415.95-326.44c0-.49.17-.92.52-1.29s.79-.55,1.32-.55c.49,0,.92.16,1.29.49s.56.77.58,1.32c0,.51-.17.95-.52,1.32s-.79.55-1.32.55-.97-.17-1.32-.52c-.35-.35-.53-.79-.55-1.32Z"/>
  </g>
  <g>
    <path class="st1" d="M381.88,19.88l3.56,8.88c-1.78.46-1.78-1.15-2.81-2.37-2.07-2.44-7.85-4.74-10.97-4.74h-21.49l14.48,20.54-16.56,18.85c6.36-.21,12.78.29,19.13.02,4.84-.21,11.61-.71,15.12-4.44,1.22-1.3,1.16-3.49,3.1-2.97l-4,10.36h-37.79l.28-1.05c5.39-6.32,11.27-12.26,16.27-18.89l-16.28-22.24-.27-1.95h38.24Z"/>
    <path class="st1" d="M204.02,28.47c.09,2.17-1.96,1.18-3.07,1.53-.89.28-2.05,6.67-2.27,7.95h8.89l1.78-8-2.96-.3c-.12-.33.13-1.18.44-1.18h9.34l-.28,1.35-2.79.17-.58.91-4.31,16.98c.12.73,2.34.35,2.92.44l-.45,1.48h-9.34l.34-1.44c.98-.26,2.55.41,3.19-.51.87-1.25,1.57-6.66,2.1-8.42h-8.89l-2.05,8.42c.19.79,2.28.38,2.94.47l-.45,1.48h-9.34l.28-1.35,3.28-.64,4.45-17.7-2.84-.43c-.49-2.23.74-1.21,1.5-1.21h8.15Z"/>
    <path class="st1" d="M230.11,49.79l.28-1.35c5.45-.07,7.92-5.98,11.53-9.22l-3.36-8.98c-.7-.85-4.4.68-2.63-2.1l8.7.32-.28,1.35-2.09.58,2.23,5.77,4.85-5.23-.09-.71-1.33-.75.27-1.17c2.38.35,4.74.11,7.12,0,1.3-.06.72,1.23.31,1.51-.54.36-2.7.15-4.31,1.32-1.02.74-4.72,4.71-5.48,5.78-.21.29-.47.55-.52.93-.05.51,3.24,8.75,3.72,9.5.94,1.47,1.75.91,3.32.98l-.45,1.48h-8.74l.29-1.34,2.09-.59-2.68-7.25c-.31-.32-5.9,6.11-6.07,6.53-.12.3-.22.55-.16.88l1.45.33.03,1.45h-8Z"/>
    <path class="st1" d="M533.95,49.79l.28-1.35,3.28-.64,4.44-17.71-2.68-.27-.28-1.35c.35-.37,7.35-.36,8.46-.31,1.37.06,3.69.17,4.95.38,4.8.79,5.28,6.21,2.01,9.27s-7.66,2.48-11.84,2.54l-1.81,7.97h2.97s-.45,1.48-.45,1.48h-9.34ZM542.84,38.83c2.13.48,6.84.35,8.46-1.17.88-.82,1.81-3.8,1.85-4.97.12-3.8-5.53-2.67-7.95-2.6l-2.36,8.75Z"/>
    <path class="st1" d="M393.74,49.79l.28-1.35,3.28-.64,4.44-17.71-2.68-.27-.28-1.35c.35-.37,7.35-.36,8.46-.31,1.37.06,3.69.17,4.95.38,4.8.79,5.28,6.21,2.01,9.27s-7.66,2.48-11.84,2.54l-1.81,7.97h2.97s-.45,1.48-.45,1.48h-9.34ZM402.63,38.83c2.13.48,6.84.35,8.46-1.17.88-.82,1.81-3.8,1.85-4.97.12-3.8-5.53-2.67-7.95-2.6l-2.36,8.75Z"/>
    <path class="st1" d="M511.72,36.76l-1.47.61c-.2.82.65,1.26.82,1.97,1.19,5.08-4.52,7.13-8.53,5.42,0,.66-.09,1.6.27,2.17.87,1.39,8.52-1.11,10.45,3.25,2.24,5.04-4.49,6.52-8.17,6.09-4.22-.49-8.17-4.33-3.14-7.08-.5-.76-1.11-1.6-1.17-2.55-.08-1.2.88-2.26.82-2.88-.06-.58-.96-1.23-1.11-2.13-.65-3.96,2.92-6.34,6.58-5.69.68.12,1.63.8,2.1.76s1.22-.82,1.95-1c2.05-.49,3.82.52,2.57,2.56-1.24.78-2.12-.2-1.96-1.51ZM505.42,37.11c-3.51.58-2.63,8.95,1.77,6.53,1.65-.9,1.8-7.12-1.77-6.53ZM503.63,49.85c-.53.12-1.1.54-1.36,1.01-2.48,4.39,7.84,5.6,9.02,1.91,1.07-3.35-5.71-3.35-7.66-2.91Z"/>
    <path class="st1" d="M579.9,37.65h.58c.84-2.72,5.86-2.21,5.9.74.04,2.69-3.71,3.46-3.56.89.08-1.26.93-1.14,1.51-1.92-1.15-.45-1.98-.4-2.8.6-.67.82-2.31,7.2-2.46,8.51s-.06,2.49,1.56,2.45c2.81-.07,3.52-3.78,3.9-3.87h1.28c-.66,4.04-5.65,7.12-8.78,3.58-.48-.08-1.21,1.19-2.1,1.4-1.7.39-3.75-.1-4.12-2-.61-3.1,4.46-4.04,3.39-.51-.26.85-1.32.46-1.13,1.39.9.08,1.75-.04,2.38-.73s2.75-8.46,2.68-9.49c-.13-2.23-2.76-1.68-4-.41-.66.68-1.33,2.94-2.1,2.94l-.75-.46c.9-3.79,5.97-7.11,8.6-3.11Z"/>
    <path class="st1" d="M443.04,38.03c.15-.18.78-.33.79-.53-.65-.88-1.79-.32-2.37.29-.9.96-2.82,8.42-2.68,9.79.21,2.15,2.78,1.37,3.88.29s1.03-3.24,2.67-2.81c-.16,4.26-5.95,7.19-8.74,3.26-.88,1.91-3.88,2.51-5.35.9-1.79-1.97,0-4.49,2.49-3.82.36.72.47,1.49.14,2.26-.24.56-1.14.46-.99,1.25,1.16.1,1.74-.04,2.45-.96s2.56-7.81,2.57-9c.02-2.35-2.44-2.11-3.85-.86-.93.82-1.41,3.42-2.5,3.12-.77-.21-.17-1.36,0-1.77,1.39-3.33,5.9-5.1,8.29-1.79,1.82-2.6,6.5-2.5,6.1,1.35-.16,1.53-2.23,2.66-3.24,1.13-.12-.67-.1-1.53.35-2.09Z"/>
    <path class="st1" d="M486.03,37.75c7.12-7.22,17.2,5.21,8.93,11.15-6.92,4.98-15.17-4.82-8.93-11.15ZM493.54,47.91c1.87-1.82,1.96-9.79-1.07-10.73-5.66-1.74-6.19,5.68-4.91,9.35.81,2.32,4.18,3.13,5.98,1.38Z"/>
    <path class="st1" d="M480.3,27.87v19.99c.56.73,1.56.39,2.37.44v1.48h-7.71v-1.48c1.74.04,2.5.3,2.69-1.61.31-3.12.42-12.46-.04-15.4-.33-2.13-2.05-.95-2.52-1.63l-.1-1.03c.28-.85,4.27-.3,5.31-.77Z"/>
    <path class="st1" d="M426.84,25.55c.52-.14.67.02.98.4-2.37,2.58-3.99,5.81-4.65,9.27-1.37,7.19-.57,15.99,4.65,21.53l-.74.45c-8.51-5.86-8.95-21.35-2.94-29.01.35-.44,2.36-2.56,2.69-2.65Z"/>
    <path class="st1" d="M227.44,26.1c.4.41-1.65,2.58-2.01,3.17-4.09,6.68-4.17,18.45-.11,25.17.53.87,1.73,1.97,1.98,2.46.57,1.11-.71.85-1.49.3-6.06-4.36-6.93-16.11-4.9-22.66.92-2.97,3.27-7.69,6.52-8.44Z"/>
    <path class="st1" d="M567.05,25.55c.52-.14.67.02.98.4-2.37,2.58-3.99,5.81-4.65,9.27-1.37,7.19-.57,15.99,4.65,21.53l-.74.45c-8.51-5.86-8.95-21.35-2.94-29.01.35-.44,2.36-2.56,2.69-2.65Z"/>
    <path class="st1" d="M259.91,26.1c.71-.15,2.76,2.05,3.26,2.66,5.35,6.51,5.31,19.58.14,26.21-.27.34-3.83,4.21-3.84,2.38,6.36-6.61,6.89-20.16,2.31-27.78-.58-.97-1.6-1.85-2.03-2.72-.17-.34-.39-.63.17-.75Z"/>
    <path class="st1" d="M458.81,25.5c1.39-.27,3.99,3.43,4.64,4.54,4.09,7.02,3.69,19.49-2.13,25.51-.69.71-2.13,2.31-2.95,1.19,6.54-6.25,6.9-20.24,2.49-27.67-.66-1.1-1.6-1.94-2.2-2.84-.25-.38-.31-.65.16-.74Z"/>
    <path class="st1" d="M599.02,25.5c1.39-.27,3.99,3.43,4.64,4.54,4.09,7.02,3.69,19.49-2.13,25.51-.69.71-2.13,2.31-2.95,1.19,6.54-6.25,6.9-20.24,2.49-27.67-.66-1.1-1.6-1.94-2.2-2.84-.25-.38-.31-.65.16-.74Z"/>
    <path class="st1" d="M518.54,54.83h5.04l.32-2.05,1.17-.02-.59,4.14h-8.3c-.03-.42-.03-.79.15-1.18.64-1.35,3.96-3.99,5.01-5.65,2.4-3.78.56-9.09-3.68-5.46l1.14.94c.54,1.54-1.23,2.55-2.36,1.46-1.6-4.67,5.52-6.36,7.87-2.83,3.08,4.63-3.57,7.58-5.77,10.65Z"/>
    <path class="st1" d="M362.92,1.51h.43c1.08-1.45,4.16-2.16,5.34-.59,1.44,1.9-.96,5.73-1.32,7.83l.72.46,1.93-2.83.9.17c-.66,1.86-1.62,3.91-3.94,3.49-3.5-.63,1.48-7.04.02-8.74-1.02-1.19-3.29.73-3.84,1.79-.74,1.41-1.18,5.91-1.79,6.65-.27.32-1.27.54-1.57.09-.76-1.12,2.16-7.18,1.35-8.9-1.36-.26-1.46,2.82-1.92,2.97l-.74-.16c-.09-2.64,2.91-5.59,4.45-2.22Z"/>
    <path class="st1" d="M378.32,72.01v13.33l2.18.05c.56.2.54.6.49,1.14h-7.71l.29-1.04,2.19-.19.49-.4v-10.81l-2.97.29v-1.18c2.02.46,3.27-1.06,5.04-1.19Z"/>
    <path class="st1" d="M280.95,45.65c-.36-.1-.61-.93-.44-1.18.07-.1,1.31-.29,1.62-.31,4.79-.35,13.37-.43,18.1.01,2.05.19,1.32,1.48.89,1.48h-20.16Z"/>
    <path class="st1" d="M301.1,38.24c.41.12.52.79.44,1.18-2.54-.14-20.46.89-21.04,0-.17-.25.14-1.18.44-1.18h20.16Z"/>
    <path class="st1" d="M315.33,40.61h18.08c.09,0,.55.6.73.74-.19.14-.64.74-.73.74h-18.08c-.09,0-.55-.6-.73-.74l.73-.74Z"/>
    <path class="st1" d="M350.17,85.92c1.65.05,1.75-1.94,2.51-2.68,1.04-1.01.5,1.31,0,2.07-.63.94-1.69,1.68-2.88,1.44-3.31-.67.19-5.82.54-7.63.6-3.05-2.39-.28-2.25,1.46-2.23-.63.74-3.87,2.23-3.87,4.79,0-1.12,8.11-.15,9.2Z"/>
    <path class="st1" d="M450.95,53.34c1.64.1,1.9-1.79,2.66-2.82l.6.31c-.21,1.67-1.79,3.73-3.64,3.35-3.61-.75,1.37-7,.67-9.13-1.75.06-1.68,1.91-2.52,2.96-1.55.37.18-3.1,1.41-3.62,1.31-.56,3.13.21,3.15,1.69.02,1.14-2.93,6.65-2.34,7.26Z"/>
    <path class="st1" d="M591.16,53.34c1.64.1,1.9-1.79,2.66-2.82l.6.31c-.21,1.67-1.79,3.73-3.64,3.35-3.61-.75,1.37-7,.67-9.13-1.75.06-1.68,1.91-2.52,2.96-1.55.37.18-3.1,1.41-3.62,1.31-.56,3.13.21,3.15,1.69.02,1.14-2.93,6.65-2.34,7.26Z"/>
    <path class="st1" d="M370.32,78.52c.06.94-.65.85-1.32.9-4.08.34-8.63-.28-12.76-.02l-.74-.89h14.82Z"/>
    <path class="st1" d="M370.32,83.56h-14.82c-.06-.94.65-.85,1.32-.9,4.08-.34,8.63.28,12.76.02l.74.89Z"/>
    <path class="st1" d="M352.76,74.01c-1.12,1.12-2.86-.17-1.73-1.58s3.07.25,1.73,1.58Z"/>
    <path class="st1" d="M452.65,39.47c1.24-.34,2.07.9.96,1.87-1.79,1.55-2.94-1.32-.96-1.87Z"/>
    <path class="st1" d="M592.86,39.47c1.24-.34,2.07.9.96,1.87-1.79,1.55-2.94-1.32-.96-1.87Z"/>
  </g>
</svg>